<?xml version="1.0" encoding="utf-8"?>
<!-- Generator: Adobe Illustrator 24.3.0, SVG Export Plug-In . SVG Version: 6.00 Build 0)  -->
<svg version="1.1" id="Layer_1" xmlns="http://www.w3.org/2000/svg" xmlns:xlink="http://www.w3.org/1999/xlink" x="0px" y="0px"
	 viewBox="0 0 300 90" style="enable-background:new 0 0 300 90;" xml:space="preserve">
<style type="text/css">
	.st0{fill:#FFFFFF;}
	.st1{clip-path:url(#SVGID_2_);}
	.st2{clip-path:url(#SVGID_4_);}
	.st3{fill:#C99700;}
	.st4{fill:#001489;}
	.st5{fill:#CCCCCC;}
	.st6{fill:#FF0600;}
	.st7{fill:#6672B8;}
</style>
<g id="Logo" transform="translate(-26.866 -19.726)">
	<g id="Group_1243" transform="translate(101.776 25.161)">
		<path id="Path_1654" class="st0" d="M21.1,35.2l2.8,2.8c-2.6,3.3-5.9,4.8-10.8,4.8c-7.5,0-13-5.6-13-13.7S6,15.5,13.3,15.5
			c4.6,0,8.4,1.8,10.6,4.9l-2.9,3c-1.7-2.7-4.7-4.3-7.9-4.2c-5,0-9,4.2-9,10c0,5.7,3.8,10,9,10C16.3,39.4,19.3,37.9,21.1,35.2z
			 M21.1,35.8c-1.9,2.5-4.8,3.9-8,3.8c-5.3,0-9.2-4.3-9.4-10v0l-1.7-0.8c0-6.3,5.2-11.5,11.5-11.5c2.7,0,5.4,1,7.5,2.8v2.7l2.3-2.4
			c-2.2-2.9-5.9-4.5-10.1-4.5C6,15.9,0.4,21.6,0.4,29.2v0.4l1.7-0.8C2.1,35.9,7,41,13.1,41c2.9,0.2,5.8-0.9,8-2.8L21.1,35.8
			L21.1,35.8z"/>
		<path id="Path_1655" class="st0" d="M49.2,16.1v26.3h-4.1V30.8H32.9v11.6h-4.1V16.1h4.1v11h12.2v-11H49.2z M29.2,41.9l1.7-1.6
			V28.9h16.3l-1.7,1.5v11.5h0l1.6-1.6V16.4h-1.7v11H32.8l-2,1.5V16.4h-1.7L29.2,41.9L29.2,41.9z"/>
		<path id="Path_1656" class="st0" d="M72.3,38.7v3.6H54.9V16.1h17.3v3.6H58.9v7.3h12.2v3.6H58.9v8.2L72.3,38.7z M55.3,41.9l1.7-1.4
			h13.3l1.7-1.4H58.7l-1.8,1.4V28.7h12.2l1.7-1.4h-12l-1.8,1.4V17.9h13.3l1.6-1.4H55.3L55.3,41.9L55.3,41.9z"/>
		<path id="Path_1657" class="st0" d="M94.3,38.7v3.6H77V16.1h4.1v22.7H94.3z M93.9,39.1H80.7L79,40.5V16.4h-1.7v25.5l1.7-1.4h13.2
			L93.9,39.1z"/>
		<path id="Path_1658" class="st0" d="M116.9,34.9c0,4.2-3.7,7.9-9.6,7.9c-5.2,0-8.8-2.7-10.1-5.8l2.6-2.8c1.2,3.1,4.2,5.1,7.5,5.1
			c3.5,0,5.6-1.9,5.6-4.2c0-2.7-2.2-3.9-6.7-4.8c-4.9-0.9-8.5-3.3-8.5-7.7c0-4.2,3.7-7,9-7c3.7-0.1,7.2,1.6,9.2,4.7l-2.6,2.6
			c-1.4-2.4-3.9-3.8-6.6-3.8c-2.8,0-5.1,1.2-5.1,3.4c0,2.4,2.3,3.7,6.9,4.6C114,28.2,116.9,30.5,116.9,34.9z M99.6,34.9v2.7
			c0.7,1.5,3.6,3.5,7.6,3.5c4.6,0,7.6-2.7,7.6-5.7l1.7-0.8c-0.1-3.9-2.7-6.1-8.2-7.2c-4.7-0.9-6.9-2.3-7.1-4.5l-1.6-0.8
			c0-2.8,3-4.8,7.1-4.8c3.4,0,6.1,1.8,6.7,2.7v2.3l2.1-2.1c-2-2.8-5.3-4.4-8.8-4.3c-5.1,0-8.6,2.7-8.6,6.6v0.4l1.5-0.8
			c0,3.5,2.3,5.7,7.6,6.6c5.2,0.9,7.6,2.9,7.6,6.7l-1.7-0.7v0.4c0,2.7-2.5,4.6-6,4.6C104,39.7,101,37.9,99.6,34.9L99.6,34.9z"/>
		<path id="Path_1659" class="st0" d="M139,38.7v3.6h-17.4V16.1h17.3v3.6h-13.2v7.3h12.2v3.6h-12.2v8.2L139,38.7z M122,41.9l1.6-1.4
			H137l1.7-1.4h-13.2l-1.8,1.4V28.7h12.2l1.7-1.4h-12l-1.8,1.4V17.9h13.3l1.6-1.4H122L122,41.9z"/>
		<path id="Path_1660" class="st0" d="M166.6,42.3h-4.3l-2.8-7.3h-10.9l-2.8,7.3h-4.3l10.5-26.3h4.1L166.6,42.3z M160.9,33.2
			l-6.8-16.8v3.2c0.5,1.5,0.7,2.1,1.2,3.4l3.4,8.8h-8.8l-2.6,1.3l6.7-16.8h-1.6l-10.2,25.5l2.3-1.4l2.9-7.4H160.9z M153.2,23.2
			l-3.2,8.3h8.2l-3.2-8.3c-0.5-1.4-0.9-2.5-0.9-2.5S153.7,21.8,153.2,23.2L153.2,23.2z M162.6,42l1.2-1.4l-3-7.4l-1.1,1.4L162.6,42z
			"/>
		<path id="Path_1661" class="st0" d="M184.3,19.7v8h12.5v3.6h-12.5v11h-4.1V16.1H198v3.6L184.3,19.7L184.3,19.7z M184.2,28.1
			l-1.9,1.4V17.9h13.9l1.4-1.4h-17v25.5l1.6-1.4v-11h12.8l1.4-1.4L184.2,28.1L184.2,28.1z"/>
		<path id="Path_1662" class="st0" d="M221.8,35.2l2.8,2.8c-2.6,3.3-5.9,4.8-10.8,4.8c-7.5,0-13-5.6-13-13.7s5.9-13.7,13.2-13.7
			c4.6,0,8.4,1.8,10.6,4.9l-2.9,3c-1.7-2.7-4.7-4.3-7.9-4.2c-5,0-9,4.2-9,10c0,5.7,3.8,10,9,10C217,39.4,220,37.9,221.8,35.2z
			 M221.8,35.8c-1.9,2.5-4.8,3.9-8,3.8c-5.3,0-9.2-4.3-9.4-10v0l-1.7-0.8c0-6.3,5.2-11.5,11.5-11.5c2.7,0,5.4,1,7.5,2.8v2.7l2.3-2.4
			c-2.2-2.9-5.9-4.5-10.1-4.5c-7.3,0-12.9,5.7-12.9,13.3v0.4l1.7-0.8c0,7.1,4.8,12.2,11,12.2c2.9,0.2,5.8-0.8,8-2.8L221.8,35.8
			L221.8,35.8z"/>
	</g>
	<g id="Group_1244" transform="translate(102.747 61.187)">
		<path id="Path_1663" class="st0" d="M8.8,15.8v1.9H5.5v9H3.4v-9H0.1v-1.9H8.8z"/>
		<path id="Path_1664" class="st0" d="M12.3,15.8v4.4h4.8v-4.4h2.1v10.9h-2.1v-4.6h-4.8v4.6h-2.1V15.8H12.3z"/>
		<path id="Path_1665" class="st0" d="M28.8,15.8v1.8h-5.5v2.5h5V22h-5v2.9h5.5v1.8h-7.6V15.8L28.8,15.8L28.8,15.8z"/>
		<path id="Path_1666" class="st0" d="M40.4,26.9c-3.1,0-5.7-2.5-5.7-5.6c0-3.1,2.5-5.7,5.6-5.7c3.1,0,5.7,2.5,5.7,5.6
			c0,0,0,0,0,0.1c0.1,3-2.3,5.6-5.3,5.7C40.6,26.9,40.5,26.9,40.4,26.9z M43.9,21.2c-0.1-1.9-1.8-3.4-3.8-3.3
			c-1.9,0.1-3.4,1.8-3.3,3.8c0.1,1.9,1.7,3.3,3.5,3.3c1.9,0,3.5-1.5,3.5-3.4C43.9,21.5,43.9,21.4,43.9,21.2L43.9,21.2z"/>
		<path id="Path_1667" class="st0" d="M47.7,15.8h7.7v1.8h-5.7v2.8h5.2v1.8h-5.2v4.4h-2.1V15.8z"/>
		<path id="Path_1668" class="st0" d="M57,15.8h7.7v1.8h-5.7v2.8h5.2v1.8h-5.2v4.4H57V15.8z"/>
		<path id="Path_1669" class="st0" d="M68.9,17.6v7.4H70v1.8h-4.3v-1.8h1.1v-7.4h-1.1v-1.8H70v1.8H68.9z"/>
		<path id="Path_1670" class="st0" d="M71.1,21.3c-0.1-3,2.2-5.6,5.3-5.7c0.1,0,0.3,0,0.4,0c1.7-0.1,3.4,0.7,4.5,2l-1.5,1.5
			c-0.7-1-1.8-1.7-3.1-1.7c-2.1,0.2-3.7,2-3.5,4.1c0.1,1.9,1.6,3.4,3.5,3.5c1.2,0,2.4-0.5,3.1-1.5l1.5,1.4c-1.1,1.4-2.8,2.1-4.6,2
			c-3,0.1-5.5-2.2-5.6-5.2C71.1,21.5,71.1,21.4,71.1,21.3z"/>
		<path id="Path_1671" class="st0" d="M85.7,17.6v7.4h1.1v1.8h-4.3v-1.8h1.1v-7.4h-1.1v-1.8h4.3v1.8H85.7z"/>
		<path id="Path_1672" class="st0" d="M91.5,15.8h2l4.4,10.9h-2.2l-1.1-2.9h-4.2l-1.1,2.9h-2.2L91.5,15.8z M93.9,22l-1-2.6
			c0,0-0.2-0.5-0.4-1.2c-0.2,0.7-0.4,1.2-0.4,1.2l-1,2.6H93.9z"/>
		<path id="Path_1673" class="st0" d="M98.9,15.8h2.1v9h5.5v1.9h-7.5L98.9,15.8L98.9,15.8z"/>
		<path id="Path_1674" class="st0" d="M117.7,26.9c-3.1,0-5.7-2.5-5.7-5.6c0-3.1,2.5-5.7,5.6-5.7c3.1,0,5.7,2.5,5.7,5.6
			c0,0,0,0,0,0.1c0.1,3-2.3,5.6-5.3,5.7C117.9,26.9,117.8,26.9,117.7,26.9z M121.3,21.2c-0.1-1.9-1.8-3.4-3.8-3.3
			c-1.9,0.1-3.4,1.8-3.3,3.8c0.1,1.9,1.7,3.3,3.5,3.3c1.9,0,3.5-1.5,3.5-3.4C121.3,21.5,121.3,21.4,121.3,21.2L121.3,21.2z"/>
		<path id="Path_1675" class="st0" d="M127.1,15.8l4.6,6.9c0.2,0.3,0.3,0.6,0.5,0.9v-7.8h2v10.9h-2.1l-4.6-7
			c-0.2-0.3-0.3-0.6-0.5-0.9v7.8h-2V15.8H127.1z"/>
		<path id="Path_1676" class="st0" d="M136.3,15.8h2.1v9h5.5v1.9h-7.5L136.3,15.8L136.3,15.8z"/>
		<path id="Path_1677" class="st0" d="M147.7,17.6v7.4h1.1v1.8h-4.3v-1.8h1.1v-7.4h-1.1v-1.8h4.3v1.8H147.7z"/>
		<path id="Path_1678" class="st0" d="M152.4,15.8l4.6,6.9c0.2,0.3,0.3,0.6,0.5,0.9v-7.8h2v10.9h-2.1l-4.6-7
			c-0.2-0.3-0.3-0.6-0.5-0.9v7.8h-2V15.8H152.4z"/>
		<path id="Path_1679" class="st0" d="M169.1,15.8v1.8h-5.5v2.5h5V22h-5v2.9h5.5v1.8h-7.6V15.8L169.1,15.8L169.1,15.8z"/>
		<path id="Path_1680" class="st0" d="M175.3,24.5l1.4-1.4c0.5,1.2,1.7,2,3,2c1.2,0,2-0.6,2-1.5c0-1-0.9-1.5-2.7-1.8
			c-2-0.4-3.4-1.4-3.4-3.3c0-1.8,1.6-3,3.8-3c1.6-0.1,3.1,0.7,4,2l-1.3,1.2c-0.6-0.9-1.6-1.5-2.7-1.5c-1,0-1.8,0.4-1.8,1.1
			c0,0.8,0.8,1.3,2.6,1.7c2.4,0.5,3.6,1.5,3.6,3.4c0,1.8-1.5,3.4-4.1,3.4C177.8,27.1,176.1,26.1,175.3,24.5z"/>
		<path id="Path_1681" class="st0" d="M193.1,15.8v1.9h-3.3v9h-2.1v-9h-3.3v-1.9H193.1z"/>
		<path id="Path_1682" class="st0" d="M199,26.9c-3.1,0-5.7-2.5-5.7-5.6c0-3.1,2.5-5.7,5.6-5.7c3.1,0,5.7,2.5,5.7,5.6c0,0,0,0,0,0.1
			c0.1,3-2.3,5.6-5.3,5.7C199.2,26.9,199.1,26.9,199,26.9z M202.5,21.2c-0.1-1.9-1.8-3.4-3.8-3.3c-1.9,0.1-3.4,1.8-3.3,3.8
			c0.1,1.9,1.7,3.3,3.5,3.3c1.9,0,3.5-1.5,3.5-3.4C202.5,21.5,202.5,21.4,202.5,21.2L202.5,21.2z"/>
		<path id="Path_1683" class="st0" d="M208.3,22.3v4.4h-2.1V15.8h4.7c2.4,0,3.9,1.2,3.9,3.1c0,1.5-1,2.8-2.5,3.2l2.6,4.6h-2.4
			l-2.5-4.4L208.3,22.3z M210.9,20.5c1.3,0,1.8-0.6,1.8-1.4c0-0.9-0.6-1.4-1.8-1.4h-2.6v2.9L210.9,20.5L210.9,20.5z"/>
		<path id="Path_1684" class="st0" d="M224.1,15.8v1.8h-5.5v2.5h5V22h-5v2.9h5.5v1.8h-7.6V15.8L224.1,15.8L224.1,15.8z"/>
	</g>
	<g id="Group_1249" transform="translate(26.866 19.726)">
		<g id="Group_1248">
			<g>
				<defs>
					<rect id="SVGID_1_" x="0" y="15.5" width="59" height="58.9"/>
				</defs>
				<clipPath id="SVGID_2_">
					<use xlink:href="#SVGID_1_"  style="overflow:visible;"/>
				</clipPath>
				<g id="Group_1247" class="st1">
					<g id="Group_1246">
						<g>
							<defs>
								<rect id="SVGID_3_" x="0" y="15.5" width="59" height="58.9"/>
							</defs>
							<clipPath id="SVGID_4_">
								<use xlink:href="#SVGID_3_"  style="overflow:visible;"/>
							</clipPath>
							<g id="Group_1245" class="st2">
								<path id="Path_1685" class="st3" d="M59,45c0,16.3-13.2,29.5-29.5,29.6S0,61.4,0,45.1c0-16.3,13.2-29.5,29.5-29.6
									c0,0,0,0,0.1,0C45.8,15.5,59,28.7,59,45"/>
								<path id="Path_1686" class="st4" d="M58.1,45c0,15.8-12.7,28.6-28.5,28.6C13.8,73.6,1,60.9,1,45.1s12.7-28.6,28.5-28.6
									c0,0,0,0,0.1,0C45.3,16.5,58,29.3,58.1,45C58.1,45,58.1,45,58.1,45"/>
								<path id="Path_1687" class="st3" d="M49.9,45c0,11.2-9.1,20.3-20.3,20.4S9.2,56.3,9.2,45.1c0-11.2,9.1-20.3,20.3-20.4
									c0,0,0,0,0,0C40.7,24.7,49.8,33.8,49.9,45C49.9,45,49.9,45,49.9,45"/>
								<path id="Path_1688" class="st0" d="M49.2,45c0,10.9-8.8,19.7-19.7,19.8S9.8,56,9.8,45.1s8.8-19.7,19.7-19.8c0,0,0,0,0,0
									C40.4,25.3,49.2,34.1,49.2,45C49.2,45,49.2,45,49.2,45"/>
								<path id="Path_1689" class="st3" d="M12.6,62l0.8,0.7l0.5-0.5l-1.5-1.5l-0.2,0.2l-2.1,2.2l0.8,0.7c0,0,0.7-0.7,0.9-0.9
									c0.2,0.2,0.7,0.7,0.7,0.7L13,63c0,0-0.5-0.5-0.7-0.7C12.4,62.2,12.5,62.1,12.6,62"/>
								<path id="Path_1690" class="st3" d="M16.3,64.4c-0.2-0.9-1-1.4-1.8-1.3c-0.9,0.2-1.6,1.1-1.4,2c0.1,0.4,0.3,0.8,0.7,1
									c0.3,0.2,0.8,0.3,1.2,0.3c0.5-0.1,0.9-0.3,1.1-0.7c0.2-0.3,0.3-0.7,0.3-1C16.3,64.6,16.3,64.5,16.3,64.4 M14.1,65.6
									c-0.4-0.3-0.1-0.8,0.1-1.1c0.2-0.3,0.6-0.7,1-0.5c0.4,0.3,0,0.8-0.1,1.1S14.5,65.9,14.1,65.6"/>
								<path id="Path_1691" class="st3" d="M18.7,65.3c-0.8-0.4-1.8-0.1-2.2,0.7c0,0,0,0,0,0.1c-0.2,0.4-0.3,0.9-0.1,1.3
									c0.1,0.4,0.4,0.7,0.8,0.9c0.4,0.2,0.8,0.2,1.2,0.1c0.4-0.2,0.8-0.5,1-0.9C19.9,66.7,19.6,65.7,18.7,65.3
									C18.8,65.3,18.8,65.3,18.7,65.3 M17.8,67.7c-0.1,0-0.2,0-0.3,0c-0.1-0.1-0.2-0.2-0.2-0.4c0-0.2,0.1-0.5,0.2-0.7
									c0.2-0.3,0.5-0.8,0.9-0.6c0.1,0,0.2,0.1,0.2,0.2c0,0.3,0,0.6-0.2,0.9C18.3,67.3,18.1,67.5,17.8,67.7"/>
								<path id="Path_1692" class="st3" d="M20.4,66.5l-0.2,0.4l0.5,0.2c-0.1,0.4-0.8,2.4-0.8,2.4l1,0.4c0,0,0.7-2,0.8-2.4
									c0.1,0,0.5,0.2,0.5,0.2l0.2-0.7l-2-0.7L20.4,66.5z"/>
								<path id="Path_1693" class="st3" d="M24.7,67.4l-1.4-0.3l-0.1,0.3l-0.6,2.9l1.4,0.3c0.3,0.1,0.6,0,0.9-0.1
									c0.2-0.1,0.4-0.4,0.4-0.6c0-0.1,0-0.1,0-0.2c0-0.2-0.1-0.4-0.2-0.5c0.2-0.1,0.3-0.3,0.3-0.5c0-0.1,0-0.1,0-0.2
									C25.5,67.9,25.2,67.5,24.7,67.4 M24.3,69.6c0,0.1,0,0.1-0.1,0.2c-0.1,0-0.2,0-0.2,0l-0.1,0c0-0.2,0.1-0.3,0.1-0.6l0.1,0
									C24.2,69.3,24.3,69.4,24.3,69.6C24.3,69.6,24.3,69.6,24.3,69.6 M24.2,68.1c0.1,0,0.2,0.1,0.2,0.1c0,0,0,0.1,0,0.1
									c0,0,0,0.1,0,0.1c0,0.1,0,0.2-0.3,0.2l-0.1,0C24.1,68.3,24.2,68.2,24.2,68.1"/>
								<path id="Path_1694" class="st3" d="M27.2,67.9l-1.5,3.1l0.9,0.1c0,0,0.2-0.5,0.3-0.7c0.2,0,0.4,0,0.5,0
									c0.1,0.2,0.2,0.7,0.2,0.7l1.1,0.1l-1.3-3.9L27.2,67.9z"/>
								<path id="Path_1695" class="st3" d="M30.6,70.3c0-0.4-0.1-2.5-0.1-2.5l-0.3,0l-0.8,0l0.1,3.3l2.2-0.1l0-0.8
									C31.7,70.3,30.9,70.3,30.6,70.3"/>
								<path id="Path_1696" class="st3" d="M33.5,70c-0.1-0.4-0.4-2.5-0.4-2.5l-0.3,0l-0.8,0.1l0.5,3.2l2.1-0.3l-0.1-0.8
									C34.6,69.8,33.8,69.9,33.5,70"/>
								<path id="Path_1697" class="st3" d="M39.7,67.8c0,0.3-0.2,0.5-0.4,0.6c-0.1,0.1-0.3,0.1-0.4,0c-0.2-0.1-0.4-0.3-0.5-0.6
									c-0.1-0.3-0.2-0.6-0.1-0.8c0.1-0.2,0.2-0.3,0.4-0.3c0.2-0.1,0.4,0,0.7,0.2l0.2,0.1l0.4-0.6l-0.2-0.2c-0.4-0.3-1-0.3-1.4-0.2
									c-0.4,0.2-0.8,0.5-0.9,0.9c-0.2,0.4-0.2,0.9,0,1.3c0.3,0.9,1.3,1.3,2.2,0.9c0.6-0.2,1-0.7,1-1.3l0-0.3l-0.8-0.1L39.7,67.8z"
									/>
								<path id="Path_1698" class="st3" d="M42.2,66.9L41,64.8l-0.2,0.1l-0.7,0.4l1.6,2.9l1.9-1.1l-0.4-0.7L42.2,66.9"/>
								<path id="Path_1699" class="st3" d="M44.3,62.5l-0.2,0.2L43.7,63l1.3,1.8c0,0,0.1,0.1,0.1,0.2c0,0.1-0.1,0.2-0.2,0.3
									c-0.1,0-0.1,0.1-0.2,0.1c-0.1,0-0.1-0.1-0.2-0.1l-1.3-1.8L42.3,64l1.3,1.8c0.2,0.2,0.4,0.4,0.7,0.5c0.4,0,0.7-0.1,1-0.3
									c0.5-0.3,0.7-1,0.4-1.5c0,0,0-0.1-0.1-0.1L44.3,62.5z"/>
								<path id="Path_1700" class="st3" d="M48.3,61.9c-0.2-0.2-0.4-0.3-0.7-0.3c0-0.2-0.1-0.4-0.2-0.6c-0.4-0.4-1-0.4-1.4,0
									c0,0,0,0,0,0l-1,1l2.3,2.3l1-1c0.2-0.2,0.4-0.5,0.4-0.8C48.6,62.3,48.5,62.1,48.3,61.9 M46.6,61.8c0,0,0.1,0.1,0.1,0.1
									c0,0.1,0,0.1-0.1,0.2c0,0,0,0-0.1,0.1c-0.1-0.1-0.2-0.2-0.3-0.3C46.4,61.6,46.5,61.7,46.6,61.8 M47.1,62.6
									c0.1-0.1,0.3-0.1,0.4,0c0,0,0,0,0,0c0.1,0,0.1,0.1,0.1,0.2l0,0c0,0.1-0.1,0.2-0.1,0.2l-0.1,0.1L47,62.7
									C47.1,62.7,47.1,62.6,47.1,62.6"/>
								<path id="Path_1701" class="st0" d="M12.6,61.7l0.8,0.7l0.2-0.2L12.4,61l-0.1,0.1l-1.9,2l0.5,0.4l0.9-0.9l0.7,0.7l0.2-0.2
									c0,0-0.6-0.6-0.7-0.7L12.6,61.7"/>
								<path id="Path_1702" class="st0" d="M15.5,63.6c-0.3-0.2-0.7-0.3-1-0.2c-0.4,0.1-0.8,0.3-1,0.6c-0.2,0.3-0.3,0.7-0.3,1.1
									c0.1,0.4,0.3,0.7,0.6,0.9c0.3,0.2,0.7,0.3,1,0.2c0.4-0.1,0.8-0.3,1-0.6c0.2-0.3,0.3-0.6,0.3-0.9c0-0.1,0-0.2,0-0.2
									C16,64.1,15.8,63.8,15.5,63.6 M15.3,65.2c-0.2,0.3-0.7,0.9-1.3,0.5c-0.5-0.4-0.1-1.1,0.1-1.4s0.7-0.9,1.3-0.5
									C15.9,64.2,15.5,64.9,15.3,65.2"/>
								<path id="Path_1703" class="st0" d="M18.6,65.4c-0.7-0.3-1.6-0.1-1.9,0.7c0,0,0,0,0,0c-0.2,0.4-0.2,0.8-0.1,1.2
									c0.3,0.7,1,1.1,1.7,0.9c0.4-0.1,0.7-0.4,0.9-0.8C19.6,66.7,19.4,65.9,18.6,65.4C18.7,65.5,18.7,65.5,18.6,65.4 M17.4,67.8
									c-0.6-0.3-0.3-1.1-0.1-1.4c0.2-0.3,0.6-1,1.2-0.7c0.1,0.1,0.3,0.2,0.3,0.3c0.1,0.7-0.3,1.4-0.9,1.8
									C17.7,67.9,17.6,67.9,17.4,67.8"/>
								<path id="Path_1704" class="st0" d="M20.6,66.5l-0.1,0.2c0,0,0.4,0.1,0.5,0.2c0,0.1-0.8,2.4-0.8,2.4l0.6,0.2
									c0,0,0.8-2.2,0.8-2.4l0.5,0.2l0.1-0.3L20.6,66.5L20.6,66.5z"/>
								<path id="Path_1705" class="st0" d="M24.6,67.6l-1.2-0.2l0,0.1l-0.6,2.7l1.2,0.3c0.3,0.1,0.5,0,0.7-0.1
									c0.2-0.1,0.3-0.3,0.3-0.5c0-0.1,0-0.1,0-0.2c0-0.2-0.1-0.5-0.3-0.6c0.2-0.1,0.4-0.3,0.5-0.5c0,0,0-0.1,0-0.1
									C25.3,68,25,67.6,24.6,67.6 M24.2,67.8c0.2,0,0.3,0.1,0.4,0.2c0,0.1,0.1,0.1,0.1,0.2c0,0,0,0.1,0,0.1c0,0.2-0.2,0.4-0.5,0.3
									c0,0-0.1,0-0.1,0l-0.3-0.1c0-0.1,0.2-0.8,0.2-0.9C24.1,67.8,24.2,67.8,24.2,67.8 M24.1,69c0.2,0,0.4,0.3,0.4,0.5
									c0,0.1,0,0.1,0,0.1c0,0.1-0.1,0.2-0.2,0.3c-0.1,0.1-0.3,0.1-0.4,0L23.6,70c0-0.1,0.2-0.9,0.2-1C23.9,69,24.1,69,24.1,69"/>
								<path id="Path_1706" class="st0" d="M27.4,68L26,70.7l0.4,0c0,0,0.3-0.6,0.3-0.7c0.1,0,0.7,0.1,0.8,0.1
									c0,0.1,0.2,0.7,0.2,0.7l0.7,0.1l-1-3.1L27.4,68z M27.3,69.1c0.1,0.2,0.2,0.6,0.2,0.7c-0.1,0-0.4,0-0.6,0
									C27,69.7,27.2,69.3,27.3,69.1"/>
								<path id="Path_1707" class="st0" d="M30.4,70.5c0-0.1-0.1-2.5-0.1-2.5h-0.1l-0.6,0l0.1,2.8l1.7-0.1l0-0.4
									C31.5,70.5,30.5,70.5,30.4,70.5"/>
								<path id="Path_1708" class="st0" d="M33.4,70.2c0-0.1-0.4-2.5-0.4-2.5l-0.1,0l-0.6,0.1l0.4,2.8l1.7-0.3l-0.1-0.4
									C34.4,70.1,33.5,70.2,33.4,70.2"/>
								<path id="Path_1709" class="st0" d="M39.9,67.8c0,0.4-0.2,0.7-0.6,0.8c-0.2,0.1-0.4,0.1-0.6,0c-0.3-0.2-0.5-0.4-0.6-0.7
									c-0.2-0.3-0.2-0.7-0.1-1c0.1-0.2,0.3-0.4,0.5-0.4c0.3-0.1,0.6,0,0.8,0.2l0.1,0l0.2-0.3l-0.1,0c-0.4-0.2-0.8-0.3-1.2-0.1
									c-0.4,0.1-0.7,0.4-0.8,0.8c-0.2,0.4-0.2,0.8,0,1.2c0.3,0.7,1.1,1.1,1.9,0.8c0.5-0.2,0.9-0.6,0.9-1.2v-0.1L39.9,67.8
									L39.9,67.8z"/>
								<path id="Path_1710" class="st0" d="M42.2,67.2L41,65.1l-0.1,0l-0.5,0.3l1.4,2.5l1.5-0.8l-0.2-0.3
									C43.1,66.7,42.3,67.2,42.2,67.2"/>
								<path id="Path_1711" class="st0" d="M44.3,62.8L44.3,62.8L44,63l1.2,1.6c0.1,0.1,0.1,0.2,0.1,0.3c0,0.2-0.1,0.3-0.3,0.4
									c-0.1,0.1-0.3,0.1-0.4,0.1c-0.1,0-0.2-0.1-0.3-0.2l-1.2-1.6l-0.5,0.4l1.2,1.6c0.1,0.2,0.3,0.3,0.6,0.4
									c0.3,0,0.6-0.1,0.8-0.3c0.4-0.2,0.6-0.8,0.4-1.2c0,0,0-0.1,0-0.1L44.3,62.8z"/>
								<path id="Path_1712" class="st0" d="M48.2,62c-0.2-0.2-0.5-0.3-0.8-0.2c0-0.1,0-0.1,0-0.2c0-0.2-0.1-0.3-0.2-0.5
									c-0.3-0.3-0.8-0.3-1.1,0c0,0,0,0,0,0.1l-0.9,0.8l2,2l0.9-0.8c0.2-0.2,0.3-0.4,0.3-0.7C48.4,62.4,48.3,62.2,48.2,62
									 M46.9,61.9c0,0.1-0.1,0.2-0.2,0.3l-0.2,0.2l-0.6-0.6l0.1-0.1c0.3-0.3,0.5-0.3,0.7-0.1C46.8,61.7,46.9,61.8,46.9,61.9
									 M47.4,63.4c-0.1-0.1-0.6-0.6-0.7-0.7c0.1-0.1,0.3-0.2,0.3-0.2c0.2-0.2,0.5-0.2,0.7,0c0,0,0,0,0,0c0.1,0.1,0.2,0.2,0.2,0.3
									l0,0c0,0.1-0.1,0.3-0.2,0.4C47.7,63.2,47.5,63.4,47.4,63.4"/>
								<path id="Path_1713" class="st3" d="M16.4,25.6l-1.2,0.3l0.1,0.4c0.2,0.5,0,1.1-0.4,1.4c-0.2,0.2-0.5,0.3-0.8,0.3
									c-0.5-0.1-1-0.3-1.3-0.7c-0.4-0.4-0.6-0.9-0.7-1.5c0-0.3,0.2-0.6,0.5-0.8c0.4-0.3,0.9-0.3,1.3-0.2l0.4,0.1l0.3-1.1l-0.4-0.1
									c-0.9-0.2-1.8,0-2.5,0.6c-1.2,1.1-1.3,3-0.1,4.2c1.1,1.1,2.8,1.3,4,0.3c0.8-0.7,1.2-1.8,0.9-2.8L16.4,25.6z"/>
								<path id="Path_1714" class="st3" d="M19.6,19.6l-1.2,0.6c0,0,0.7,1.4,0.9,1.9c-0.3,0.2-0.7,0.3-1,0.5l-0.9-1.9l-1.6,0.8
									l2.4,5.2l1.6-0.8l-1-2.1l1-0.5c0.2,0.5,1,2.1,1,2.1l1.6-0.8L20,19.4L19.6,19.6z"/>
								<path id="Path_1715" class="st3" d="M25.1,22.8c-0.1-0.4-0.2-0.8-0.2-1.2l1.8-0.4l-0.2-1.1c0,0-1.3,0.3-1.8,0.4
									c-0.1-0.4-0.1-0.7-0.2-1c0.5-0.1,1.9-0.4,1.9-0.4L26.1,18l-0.4,0.1l-3.2,0.7l1.1,5.6l3.7-0.7L27,22.4L25.1,22.8"/>
								<path id="Path_1716" class="st3" d="M30.3,17.8l-1.8,0l0,0.4l-0.1,5.3l3.7,0.1l0-1.2l-2,0C30.2,21.6,30.3,17.8,30.3,17.8"/>
								<path id="Path_1717" class="st3" d="M36.1,20.7c-0.5-0.3-0.6-0.5-0.5-0.7c0-0.2,0.2-0.4,0.4-0.3c0,0,0,0,0,0
									c0.2,0.1,0.4,0.2,0.5,0.6l0.1,0.5l1.2-0.4L37.7,20c-0.3-1.1-1.4-1.8-2.6-1.5c-0.2,0-0.4,0.1-0.5,0.2
									c-0.4,0.2-0.7,0.6-0.8,1.1c-0.2,0.9,0.2,1.7,1,2.1c0.5,0.4,0.7,0.5,0.6,0.9c0,0.1-0.1,0.2-0.2,0.2c-0.1,0.1-0.2,0.1-0.4,0.1
									c-0.3-0.1-0.4-0.2-0.5-0.6l-0.1-0.4L33,22.6l0.1,0.4c0.2,0.7,0.9,1.3,1.6,1.4c1,0.3,2.1-0.3,2.4-1.3c0,0,0,0,0,0
									C37.4,22.1,36.9,21.1,36.1,20.7"/>
								<path id="Path_1718" class="st3" d="M40.3,23.8c0.5,0.2,1.7,0.8,1.7,0.8l0.5-1c0,0-1.2-0.6-1.7-0.8c0.2-0.3,0.3-0.6,0.5-0.9
									c0.5,0.2,1.8,0.9,1.8,0.9l0.5-1L40.3,20l-0.2,0.4l-2.4,4.7l3.4,1.7l0.5-1l-1.8-0.9L40.3,23.8"/>
								<path id="Path_1719" class="st3" d="M47,24.3l-5.3,2.8l1,0.9c0,0,0.9-0.5,1.2-0.6c0.2,0.2,0.6,0.5,0.8,0.7
									c-0.1,0.3-0.4,1.3-0.4,1.3l1.4,1.2l2.3-6.7L47,24.3z"/>
								<path id="Path_1720" class="st0" d="M16.2,25.9l-0.6,0.2l0,0.1c0.2,0.6,0,1.3-0.5,1.7c-0.3,0.2-0.6,0.4-1,0.3
									c-0.6-0.1-1.1-0.4-1.5-0.8c-0.4-0.4-0.7-1-0.7-1.7c0-0.4,0.2-0.8,0.6-1c0.4-0.3,1-0.4,1.5-0.2l0.1,0l0.1-0.6l-0.1,0
									c-0.8-0.2-1.6,0-2.2,0.5c-1.1,1-1.3,2.6-0.3,3.8c0,0,0.1,0.1,0.1,0.1c1,1.1,2.6,1.2,3.7,0.3c0.8-0.6,1.1-1.6,0.8-2.5
									L16.2,25.9z"/>
								<path id="Path_1721" class="st0" d="M19.8,19.9l-1,0.5c0,0,0.8,1.7,0.9,1.9c-0.2,0.1-1.3,0.6-1.6,0.7
									c-0.1-0.2-0.9-1.9-0.9-1.9l-1.1,0.5l2.2,4.7l1.1-0.5c0,0-0.9-1.9-1-2.1l1.5-0.7l1,2.1l1.1-0.5l-2.2-4.7L19.8,19.9z"/>
								<path id="Path_1722" class="st0" d="M24.9,23.2c0-0.2-0.3-1.5-0.3-1.7l1.8-0.4l-0.1-0.6c0,0-1.6,0.3-1.8,0.4
									c0-0.2-0.3-1.3-0.3-1.6c0.2-0.1,1.9-0.4,1.9-0.4l-0.1-0.6l-0.1,0l-3,0.6l1,5l3.1-0.6l-0.1-0.6L24.9,23.2"/>
								<path id="Path_1723" class="st0" d="M30,18.1l-1.2,0v0.1l-0.1,5l3.2,0.1l0-0.7l-2,0C29.9,22.3,30,18.1,30,18.1"/>
								<path id="Path_1724" class="st0" d="M36.1,19.5c0.4,0.1,0.7,0.4,0.7,0.8l0,0.2l0.6-0.2l0-0.1c-0.3-1-1.2-1.6-2.2-1.3
									c-0.2,0-0.3,0.1-0.4,0.2c-0.3,0.2-0.6,0.5-0.7,0.9c-0.2,1,0.4,1.4,0.9,1.8c0.5,0.4,0.8,0.6,0.7,1.2c0,0.2-0.2,0.3-0.3,0.4
									c-0.2,0.1-0.4,0.1-0.6,0.1c-0.4-0.1-0.7-0.4-0.7-0.8l0-0.1l-0.6,0.3l0,0.1c0.2,0.6,0.7,1.1,1.4,1.2c0.9,0.3,1.8-0.2,2.1-1.1
									c0,0,0,0,0,0c0.3-1-0.4-1.5-1-1.9c-0.5-0.3-0.8-0.6-0.7-1C35.3,19.7,35.6,19.4,36.1,19.5C36,19.5,36,19.5,36.1,19.5"/>
								<path id="Path_1725" class="st0" d="M41.2,21.4c0.2,0.1,1.8,0.9,1.8,0.9l0.3-0.5l-2.8-1.4l-0.1,0.1L38,25l2.9,1.4l0.3-0.5
									L39.4,25c0.1-0.2,0.7-1.4,0.8-1.6c0.2,0.1,1.6,0.8,1.6,0.8l0.3-0.5l-1.7-0.8C40.6,22.7,41.1,21.6,41.2,21.4"/>
								<path id="Path_1726" class="st0" d="M47.1,24.6l-5,2.6l0.6,0.5c0,0,1.1-0.6,1.2-0.6c0.1,0.1,1,0.9,1.1,1
									c-0.1,0.2-0.4,1.3-0.4,1.3l0.9,0.8l1.9-5.7L47.1,24.6z M44.5,26.7c0.2-0.1,0.8-0.4,1.2-0.6c-0.1,0.4-0.4,1-0.4,1.3
									C45,27.2,44.6,26.9,44.5,26.7"/>
								<path id="Path_1727" class="st5" d="M43.6,44.2c-0.6-1.1-2-1.6-3.1-1c-0.5,0.2-1,0.5-1.3,1c0.9-2.5,4.4-3,4.4-5.3
									c0-3.9-5.5-2.8-4.7,0c0-0.6,0.4-1,1-1c0.6,0,1,0.4,1,1c0,0,0,0,0,0.1c0,1.5-3.5,2.5-3.5,5c0,2.8,2.8,3.1,2.5,5.6
									c-0.1,0.6-0.6,1-1.2,1c-4.3,0-2.8-5.3-4.3-6.9l0.1-1.1c0.8,0.3,1.7-0.1,2-0.9c0.2-0.6,0.1-1.3-0.4-1.7c0,0.9-2,0.9-2-0.9
									c0-2.4,2.2-1.1,2.3-0.6c-0.1-0.6-0.1-1.3,0-1.9c-1.2,0.4-1.3-0.3-1.2-0.6c0.1-0.4,0.5-0.6,0.9-0.7c0.2,0,0.3,0,0.5,0.1
									c0.2,0.1,0.3-0.1,0.2,0.1c0.1-0.2,0.1,0,0.2-0.1c0.2-0.3,0.4-0.5,0.6-0.7l0-0.4l0.4,0.1l0.3-0.5c-0.4-0.8-0.9-0.4-1.2-1.3
									c-0.3-0.1-5,0.4-4.9-1.5c-0.4,0-1.3,0.2-0.7,1c-0.4,0.1-0.8-0.4-1.4,0.9c0.8-0.2,0.4,0.8,0.4,1c0,1.7-2.3,1.7-2.3,0.9
									c-0.4,0.6-0.3,1.4,0.3,1.8c0.1,0.1,0.2,0.1,0.3,0.2c-0.2,0.8-0.6,1.5-1.1,2c-1.5,0-2.9-0.4-4.1-1.2
									c-0.3-0.3-0.7-0.6-1.1-0.8v-0.6c0.6-0.3,1.1-0.7,1.5-1.3c0.4-0.5,0.6-1.1,0.6-1.8c0-0.1,0-0.2,0-0.2c0,0,0-0.1,0-0.1
									c0-0.1,0-0.1,0-0.2c0,0,0-0.1,0-0.1c0-0.1,0-0.1-0.1-0.2c0,0,0,0,0-0.1c0-0.1-0.1-0.1-0.1-0.2c0,0,0-0.1,0-0.1
									c0,0,0-0.1-0.1-0.1c0,0,0-0.1-0.1-0.1c0,0,0-0.1-0.1-0.1S24,31.6,24,31.6c0,0,0,0-0.1-0.1c-0.1-0.1-0.1-0.1-0.2-0.2
									c0,0,0,0,0,0c0,0-0.1-0.1-0.1-0.1c0,0,0,0,0,0c0,0-0.1-0.1-0.1-0.1c0,0,0,0,0,0c-0.5-0.3-1.1-0.5-1.7-0.4
									c-1.4,0-2.5,1.2-2.5,2.6c0,1.2,0.8,2.2,2,2.4c-0.2,0.1-0.5,0.3-0.8,0.3c0,0,0,0,0,0c0,0,0,0,0,0c0,0,0,0,0.1,0c0,0,0,0,0,0
									c0,0,0.1,0,0.1,0h0c0,0,0.1,0,0.1,0c0,0,0,0,0,0c0.1,0,0.1,0.1,0.2,0.1c0,0,0,0,0,0c0,0,0.1,0,0.1,0c0,0,0,0,0,0l0.1,0h0
									v0.3c0,0,0,0,0,0c-0.5,0.1-0.8,0.2-0.9,0.7s0,0.6,0.2,0.9c-0.2,0.3-0.7,0.5,0,1.2c-0.1,0.4,0.1,0.7,0.4,0.9
									c0.1,0,0.2,0.1,0.4,0.1v5.7c-0.3,0.2-0.6,0.4-0.7,0.8c0,0-0.3-0.7-0.3,0.7c0.4-0.3,0.2,0.3,0.2,0.3
									c-0.5,0.7,0.1,0.6,0.1,0.6c0.4-0.4,0.4,0.2,0.4,0.2c0,0.4,0.1,0.8,0.3,1.1v4.3h-0.4v1.2h0.7c-0.4,0.1-0.6,0.5-0.6,0.9
									c0.1,0.5,0.5,0.9,1.1,0.8c0.5,0,0.9-0.5,0.9-1c0,0,0,0,0,0c0-0.3-0.3-0.6-0.6-0.8h0.6v-1.2h-0.4v-3.8c0.1,0,0.2,0.1,0.2,0.1
									c0,0,0.1,0,0.1,0h0c-0.1-0.3,0-0.6,0.2-0.8c0.2-0.2,0.4-0.4,0.6-0.5c0.8-0.4,1.8-0.3,2.1,0.3c1.4-0.5,2.7-1.4,3.7-2.5l1,1.7
									c-2.1,0.7-6.6,4.6-3.4,5.9c0,0.4-0.1,3.3-1.9,3.1c-2.7-0.3-3.4,0.8-2.9,2c-0.2,0.6,0.1,1.2,0.6,1.4
									c-0.1-0.6,0.2-1.1,1.3-1.1c0,1.1,0.7,1.3,0.7,1.3C24.9,60.6,25.4,60,26,60c0.1,0,0.1,0,0.2,0c0,0.8,0.9,1.1,0.9,1.1
									c-0.1-0.5,0.2-0.9,0.6-1.1c0.1,0,0.1,0,0.2,0c2.6-0.5,0.2-3.1,4.1-3.9c0,0-2-0.3-2-1.4c0-1,1.8-1.7,2.4-1.7
									c1.3,2.4,2.6,2.4,3,2.5c0.6,0.6,0.4,2.7-0.4,2.7c-3-0.2-2.9,1.6-2.5,2c0,0.4,0.2,0.8,0.5,1.1c0-0.7,0.7-1,1.6-0.9
									c0,0.9,0.5,1.1,0.5,1.1c0-0.6,0.4-1,0.9-1.1c0.1,0,0.2,0,0.3,0c0,0.4,0.2,0.7,0.6,0.8c0-0.4,0.3-0.8,0.7-0.8
									c0,0,0.1,0,0.1,0c1.6,0-0.7-3.5,2.5-7c-2.8,1.3-4.3-1.9-4.3-2.6c1.4,1.7,6.1,2,6.1-0.9c0-2.7-3-3.8-1.6-4.8
									c0.8-0.6,2.4,0.6,1.5,1.9C43.2,46.8,43.9,45.5,43.6,44.2 M25.7,44.3c-0.9,0.7-1.8,1.2-2.7,1.8c-0.1,0-0.2,0.1-0.4,0.1v-5.4
									c0.6,0.1,1.2,0.2,1.7,0.4c0.8,0.4,0.8,1.3-0.2,1.5c0.6,1.2,2.7,0.6,3.2-0.4c0.2,0,0.4,0.4,0.6,0.8
									C27.6,43.2,27,43.5,25.7,44.3 M37.5,35.4c-0.1,0.2-0.2,0.3-0.3,0.4c0.4,0.7,1.3,0.9,1.9,0.5c0.5-0.3,0.7-0.8,0.7-1.3
									c0,0,0-0.1,0-0.1c-0.2,0.5-0.6,0.8-1.1,0.8C38.2,35.8,37.8,35.7,37.5,35.4"/>
								<path id="Path_1728" class="st4" d="M20.4,32.2L20.4,32.2L20.4,32.2C20.4,32.2,20.4,32.1,20.4,32.2
									C20.4,32.1,20.4,32.2,20.4,32.2 M20.5,54.7L20.5,54.7L20.5,54.7 M20,54.6l0.7,0c-0.1,0-0.2,0.1-0.2,0.1c0.1,0,0.1,0,0.2,0
									c0.3,0,0.6,0.3,0.6,0.6c0,0.3-0.3,0.6-0.6,0.6c0,0,0,0,0,0c-0.3,0-0.5-0.2-0.6-0.4v0.1c0.1,0.5,0.5,0.9,1.1,0.8
									c0.5,0,0.9-0.5,0.9-1c0,0,0,0,0,0c0-0.3-0.3-0.6-0.6-0.8h0.6v-1.2h-0.4v-3.8c-0.4-0.2-0.6-0.6-0.5-1c0.2,0,0.4,0,0.6,0.1
									c-0.2,0.5,0.3,1,0.3,1c-0.1-0.3,0-0.6,0.2-0.8c0.2-0.2,0.4-0.4,0.6-0.5c0.8-0.4,1.8-0.3,2.1,0.3c1.4-0.5,2.7-1.4,3.7-2.5
									l1,1.6c2.3,0,1.5-1.7,1.3-1.9c0.7,0,1.3,0.5,1.3,1.2c0,0,0,0,0,0c0,2.1-6.1,2.4-6.1,4.9c0,0.7,0.4,1.2,1.1,1.5
									c0,2.3-1.6,3.7-2.7,3.7c-1.7,0-3.1-0.4-3.1,1.5h0.6c-0.6,0.6,0,1.4,0,1.4c-0.1-0.6,0.2-1.1,1.3-1.1h0.7
									c-0.3,0.4-0.3,0.9,0,1.3c-0.1-0.7,0.4-1.2,1.1-1.3c0.1,0,0.1,0,0.2,0h0.5c-0.1,0.1,0.1,0.8,0.4,1.1
									c-0.1-0.5,0.2-0.9,0.6-1.1c0.1,0,0.1,0,0.2,0c2.6-0.5,0.2-3.1,4.1-3.9c0,0-2-0.3-2-1.4c0-1,1.8-1.7,2.4-1.7
									c0.4-0.1,0.9-0.1,1.3,0c0.2,1.6,2,1.5,2.3,1.5c1.5,1.5-0.4,4-0.4,4c-2.3,0-3.3,0.3-3.3,1.7h0.4c-0.2,0.2-0.1,0.9,0.1,1.1
									c0-0.8,0.7-1,1.6-0.9h0.5c-0.2,0.3-0.2,0.8,0.1,1c0-0.6,0.4-1,0.9-1.1c0.1,0,0.2,0,0.2,0h0.4c-0.1,0.2,0,0.6,0.2,0.8
									c0-0.4,0.3-0.8,0.7-0.8c0,0,0.1,0,0.1,0c1.6,0-0.7-3.5,2.5-7c-2.8,1.3-4.3-1.9-4.3-2.6c1.4,1.7,6.1,2,6.1-0.9
									c0-2.3-2.2-3.4-2-4.3c0.1-0.8,0.7-1.3,1.5-1.3c0.8,0.1,1.3,0.7,1.3,1.5c0,0.5-0.4,1-0.9,1.2l0,0c1.2-0.2,1.9-1.3,1.8-2.4
									c-0.2-1.2-1.3-1.9-2.4-1.8c-0.3,0-0.5,0.1-0.8,0.3c-0.5,0.2-1,0.5-1.3,1c0.9-2.5,4.4-3,4.4-5.4c0-3.9-5.5-2.8-4.7,0
									c0,0,0-0.1,0-0.1c0.1-1.6,3-1.9,3,0.2c0,1.8-3.6,2.7-3.6,5.1c0,2.4,2.7,3,2.7,5.6c0,0.3-0.2,1.6-1.9,1.6
									c-1.4,0.1-2.7-0.9-3-2.2c-0.9-1.7-0.6-4.3-1.5-5.4l0.1-1.1c0.8,0.3,1.7-0.1,2-0.9c0.2-0.6,0.1-1.3-0.4-1.7
									c0,0.9-1.9,0.9-1.9-0.9c0-2.4,2.2-1.1,2.3-0.6c-0.1-0.6-0.1-1.3,0-1.9c-1.2,0.4-1.3-0.3-1.2-0.6c0.2-0.3,0.4-0.7,0.9-0.7
									c0.7,0,0.6,0.3,0.6,0.6c0.2-0.5,0.6-0.9,0.9-1.3l0-0.4l0.4,0.1l0.3-0.5c-0.4-0.8-0.9-0.4-1.2-1.3c-0.3-0.1-4.3-0.4-4.1-2.3
									c-0.4,0-1.3,1.2-0.7,1.9h-0.8c-0.9-0.2-1.8,0.3-2.1,1.1c1.6-1.6,2.7,2.3-0.3,2.3c-0.4,0-0.8-0.2-0.8-0.5
									c-0.3,1.3,1.6,1.7,1.6,1.7c-0.3,1.1-0.8,2.1-1.4,3c0.3,0.3,0.4,2.2-1,2.2c0.5-1.4-1-2.6-2.5-3.4l0,0
									c-0.3-0.1-0.5-0.2-0.8-0.4c-0.5-0.2-1.1-0.5-1.6-0.6v-1.1c0.6-0.3,1.1-0.7,1.5-1.3c0.4-0.5,0.6-1.1,0.6-1.8
									c0-0.1,0-0.2,0-0.2c0,0,0,0,0-0.1c0-0.1,0-0.1,0-0.2c0,0,0-0.1,0-0.1c0-0.1,0-0.1-0.1-0.2c0,0,0,0,0-0.1
									c0-0.1-0.1-0.1-0.1-0.2c0,0,0-0.1,0-0.1c0,0,0-0.1-0.1-0.1c0,0,0-0.1-0.1-0.1s0-0.1-0.1-0.1c0,0-0.1-0.1-0.1-0.1
									c0,0,0,0-0.1-0.1c-0.1-0.1-0.1-0.1-0.2-0.2c0,0,0,0,0,0c0,0-0.1-0.1-0.1-0.1c0,0,0,0,0,0c-0.1,0-0.1-0.1-0.1-0.1
									c0,0,0,0,0,0c-0.5-0.3-1.1-0.5-1.7-0.4c-0.1,0-0.3,0-0.4,0.1c-1,0.5-1.5,1.5-1.5,2.5c0,1,0.5,2,1.3,2.5c0,0,0,0,0,0
									c-0.2,0.1-0.5,0.3-0.8,0.3l0,0c0,0,0,0,0,0c0,0,0,0,0.1,0c0,0,0,0,0,0c0,0,0,0,0.1,0h0c0,0,0,0,0.1,0l0,0
									c0.1,0,0.1,0.1,0.2,0.1c0,0,0,0,0,0c0,0,0.1,0,0.1,0c0,0,0,0,0,0c0,0,0.1,0,0.1,0c0,0,0,0,0,0c0.2,0,0.4,0,0.6,0v0.6
									c-0.2,0-0.4-0.1-0.6-0.3c0,0,0,0,0,0c-0.5,0.1-0.8,0.2-0.9,0.7s0,0.6,0.2,0.9c-0.2,0.3-0.7,0.5,0,1.2
									c-0.1,0.4,0.1,0.7,0.4,0.9c0.1,0,0.2,0.1,0.4,0.1c0.4,0,0.6,0.3,0.6,0.7c0,0,0,0,0,0v4.9c0.2,0,0.5,0,0.7,0.1v-5.4
									c0.6,0.1,1.2,0.2,1.7,0.4c0,0,0,0,0,0l0,0c0.1,0,0.1,0,0.2,0c0.4,0,0.8,0.4,0.8,0.8c0,0.4-0.4,0.8-0.8,0.8
									c-0.1,0-0.3,0-0.4-0.1c0.6,1.2,2.7,0.6,3.2-0.4c0.2,0,0.4,0.4,0.6,0.8c0.6,0.2,1.2,0.2,1.9,0.2c0,0-5.3,3.4-6.9,3.4
									c-0.7,0-2.1,0-2.1,0.5c-0.4,0-1,0.7-1,1.1c0.2-0.2,0.4-0.3,0.7-0.3c0.2,0,0.3,0,0.5,0.1c-0.3,0.3-0.6,0.7-0.6,1.2
									c0.4-0.4,0.6-0.4,0.6-0.4s0.5-0.1,0.6,0.1c-0.2,0.3-0.3,0.6-0.3,1c0,0,0.3-0.5,0.6-0.5v5.1c0,0.2-0.7,0.3-1,0.3 M20.2,39.1
									c-0.1,0-0.2-0.2-0.2-0.2c0-0.1,0-0.2,0.2-0.2c0.3,0,0.6,0.1,0.9,0.2C20.9,39,20.6,39.1,20.2,39.1 M20,38.3
									c-0.2,0-0.2-0.3-0.2-0.3c0-0.1,0.1-0.3,0.3-0.3c0.4,0,0.9,0.2,1.3,0.4C20.9,38.2,20.5,38.3,20,38.3 M20,37.2
									c-0.2,0-0.2-0.3-0.2-0.4c0-0.1,0.2-0.3,0.4-0.3c0.5,0.1,0.9,0.4,1.3,0.7C20.9,37.3,20.4,37.3,20,37.2 M21.4,34.1
									c0.1-0.2,0.1-0.5,0-0.7h0c-0.5,0-1-0.4-1-1c0,0,0,0,0,0c0-0.1,0-0.2,0-0.3l0,0l0,0c0.2-0.5,0.7-0.8,1.2-0.7
									c0.4,0.1,0.7,0.5,0.7,1C22.3,33.1,21.9,33.8,21.4,34.1"/>
								<path id="Path_1729" class="st6" d="M36.3,35c0.4,0.7,1.3,0.9,1.9,0.5c0.5-0.3,0.7-0.8,0.7-1.3c0,0,0-0.1,0-0.1
									c-0.2,0.5-0.6,0.8-1.1,0.8c-0.4,0.1-0.8-0.1-1.1-0.3C36.6,34.7,36.4,34.9,36.3,35"/>
								<path id="Path_1730" class="st0" d="M34.5,32.4l0.5,0l-0.2,0.3C34.7,32.8,34.4,32.9,34.5,32.4 M33.3,32.4H34
									c0,0,0,0.6,0.5,0.6l-0.1,0.2C34.4,33.2,33,32.9,33.3,32.4"/>
								<path id="Path_1731" class="st7" d="M21.4,37.2c-0.4-0.3-0.8-0.6-1.3-0.7c-0.2-0.1-0.3,0.2-0.4,0.3c0,0.1,0,0.4,0.2,0.4
									C20.4,37.3,20.9,37.3,21.4,37.2 M21.4,38c-0.4-0.2-0.8-0.4-1.3-0.4c-0.2,0-0.3,0.2-0.3,0.3c0,0.1,0.1,0.3,0.2,0.3
									C20.5,38.3,20.9,38.2,21.4,38 M20.4,35.5v0.3c0.2,0.1,0.4,0.2,0.6,0.3v-0.6C20.8,35.5,20.6,35.5,20.4,35.5 M20.2,38.6
									c-0.1,0-0.2,0.2-0.2,0.2s0.1,0.2,0.2,0.2c0.3,0,0.6-0.1,0.9-0.3C20.9,38.7,20.6,38.6,20.2,38.6 M19.6,47.1
									c-0.3,0.4-0.4,0.9-0.1,1.3c0.1-0.4,0.3-0.9,0.6-1.2C19.9,47.1,19.8,47.1,19.6,47.1 M21.2,48.5c-0.1,0.4,0.1,0.8,0.5,1
									c0.1,0,0.2,0.1,0.2,0.1c0,0,0.1,0,0.1,0c0,0,0,0,0,0c0,0-0.5-0.5-0.3-1C21.6,48.6,21.4,48.5,21.2,48.5 M20.3,34.9
									c-0.9-0.5-1.4-1.5-1.3-2.5c-0.1-1.1,0.5-2.1,1.5-2.5c-1.4,0.2-2.3,1.6-2.1,3C18.5,33.8,19.3,34.6,20.3,34.9 M28.6,32.1
									c0.5-0.1,1,0.2,1.1,0.7c0,0.1,0,0.1,0,0.2c0,0.8-0.6,1.4-1.3,1.4c0,0-0.1,0-0.1,0C31.3,34.4,30.2,30.5,28.6,32.1 M26.6,40.7
									c1.4,0,1.3-1.9,1-2.2c0.6-0.9,1.1-1.9,1.4-3c0,0-1.9-0.4-1.6-1.7l0,0h0c-0.4,0.6-0.3,1.4,0.3,1.8c0.1,0.1,0.2,0.1,0.3,0.1
									c-0.2,0.8-0.6,1.5-1.1,2c-1,0-1.9-0.2-2.8-0.5C25.6,38.2,27.1,39.3,26.6,40.7 M21,31.8c0.4,0,0.7,0.2,0.7,0.6
									c0,0.4-0.3,0.7-0.6,0.7c0,0,0,0,0,0c-0.4,0-0.7-0.2-0.7-0.6c0,0.5,0.4,1,1,1c0,0,0,0,0,0h0c0.1,0.2,0.1,0.5,0,0.7
									c0.5-0.4,0.9-1,1-1.7c0-0.6-0.5-1-1-1c-0.4,0-0.8,0.3-0.9,0.7C20.5,31.9,20.7,31.8,21,31.8 M31.6,31
									c-0.7-0.6,0.3-1.9,0.7-1.9c-0.4,0-2.1,1.1-1.5,1.9H31.6z M23.2,41.8c0.4,0.2,0.8,0.1,1.1-0.2c0.2-0.4,0.1-0.8-0.2-1.1
									c-0.1-0.1-0.3-0.1-0.4-0.1c-0.1,0-0.1,0-0.2,0C24.2,40.8,24.2,41.6,23.2,41.8 M21.7,36.4c0.6,0.2,1.1,0.4,1.6,0.6
									c-0.2-0.1-0.4-0.2-0.5-0.4c-0.3-0.3-0.7-0.6-1.1-0.8V36.4z M22,45.8c1.5,0,6.9-3.4,6.9-3.4c-0.6,0-1.2,0-1.9-0.2
									c-0.3,0.2-0.9,0.5-2.2,1.2c-0.9,0.7-1.8,1.2-2.7,1.8c-0.1,0-0.2,0.1-0.4,0.1c-0.2,0-0.5-0.1-0.7-0.1v-4.9
									c0-0.4-0.2-0.7-0.6-0.7c0,0,0,0,0,0v5.7c-0.3,0.2-0.6,0.4-0.7,0.8c0,0-0.8-0.1-0.8,1.4c0-0.4,0.6-1.1,1-1.1
									C19.9,45.8,21.3,45.8,22,45.8 M35.3,53.7c-0.4,0-2.2,0.1-2.3-1.5c-0.4-0.1-0.9-0.1-1.3,0c1.3,2.4,2.6,2.4,3,2.5
									c0.6,0.6,0.4,2.7-0.4,2.7c-3-0.2-2.9,1.6-2.5,2c0-1.4,0.9-1.7,3.3-1.7C34.9,57.7,36.8,55.2,35.3,53.7 M35.9,59.5h-0.4
									c0,0.4,0.2,0.7,0.6,0.8C35.9,60.2,35.8,59.7,35.9,59.5 M32.2,60.4c-0.2-0.2-0.3-0.9-0.1-1.1h-0.4
									C31.6,59.8,31.8,60.2,32.2,60.4 M41,38c0-2.1-2.8-1.7-3-0.2c0.1-0.6,0.5-1,1.1-0.9c0.5,0.1,0.9,0.5,0.9,1
									c0,1.5-3.5,2.5-3.5,5c0,2.8,2.8,3.1,2.5,5.6c-0.1,0.6-0.6,1-1.2,1c-1.1,0.1-2.2-0.5-2.7-1.5c0.4,1.4,1.6,2.3,3,2.2
									c1.8,0,1.9-1.3,1.9-1.6c0-2.6-2.7-3.2-2.7-5.6C37.4,40.7,41,39.7,41,38 M20.1,47.9c0,0.4,0.1,0.8,0.3,1.1
									c0-0.4,0.1-0.7,0.3-1C20.5,47.9,20.1,47.9,20.1,47.9 M40.6,43.6c-0.7,0-1.3,0.5-1.4,1.3c0.1-0.2,0.2-0.4,0.4-0.5
									c0.8-0.6,2.4,0.6,1.5,1.9c0.7-0.3,1-1.1,0.8-1.8C41.7,43.9,41.1,43.6,40.6,43.6 M34.3,59.5h-0.5c0,0.9,0.5,1,0.5,1
									C34.1,60.3,34.1,59.9,34.3,59.5 M20.7,54.7c-0.1,0-0.1,0-0.2,0c-0.2,0.2-0.4,0.5-0.4,0.7c0.1,0.3,0.4,0.5,0.8,0.4
									c0.2-0.1,0.4-0.3,0.4-0.6C21.3,54.9,21,54.7,20.7,54.7 M24.1,59.1h-0.7c0,1.1,0.7,1.3,0.7,1.3C23.7,60,23.7,59.5,24.1,59.1
									 M26.2,52.1c0-2.5,6.1-2.8,6.1-4.9c0-0.7-0.6-1.2-1.2-1.2c0,0,0,0,0,0c0.2,0.1,0.9,1.9-1.3,1.9c-2.1,0.7-6.6,4.6-3.4,5.9
									c0,0.4-0.1,3.3-1.9,3.1c-2.7-0.3-3.4,0.8-2.9,2c0-1.9,1.3-1.5,3.1-1.5c1.1,0,2.7-1.4,2.7-3.7C26.7,53.3,26.3,52.7,26.2,52.1
									 M21,53.6v-5.1c-0.3,0-0.6,0.5-0.6,0.5v4.3H20v0.6C20.3,53.9,21,53.8,21,53.6 M22.1,60.2c0,0-0.5-0.8,0-1.4h-0.6
									C21.3,59.3,21.6,59.9,22.1,60.2 M25.8,59.1h-0.5c0,0.8,0.9,1.1,0.9,1.1C25.9,59.9,25.7,59.2,25.8,59.1"/>
								<path id="Path_1732" class="st0" d="M50.7,39.2"/>
								<path id="Path_1733" class="st0" d="M8.9,50.6l0-0.1l0-0.1c0-0.4-0.1-1.1-0.7-1.2c-0.1,0-0.3,0-0.4,0c0-0.1,0-0.3,0-0.4
									c-0.2-0.5-0.9-0.5-1.3-0.5H6.3l-0.1,0c-0.4-0.1-1-0.2-1.3,0.3c-0.1,0.1-0.1,0.3-0.1,0.4c-0.1-0.1-0.3-0.1-0.4-0.1
									c-0.5,0-0.8,0.7-0.9,1l0,0.1l0,0.1c-0.2,0.3-0.5,0.9-0.2,1.3c0.1,0.1,0.2,0.2,0.4,0.2c-0.1,0.1-0.2,0.2-0.3,0.4
									c-0.1,0.5,0.4,0.9,0.7,1.1l0.1,0.1l0.1,0.1c0.3,0.3,0.7,0.8,1.2,0.6c0.1-0.1,0.3-0.2,0.3-0.3C5.9,53.8,6,53.9,6.1,54
									c0.5,0.3,1-0.1,1.3-0.3l0.1-0.1l0.1-0.1c0.3-0.2,1-0.5,0.9-1c0-0.2-0.1-0.3-0.2-0.4c0.2,0,0.3-0.1,0.4-0.2
									C9.2,51.6,9,51,8.9,50.6"/>
								<path id="Path_1734" class="st6" d="M6.5,51.1c3,1.8,2.1-0.2,2-0.5S8.4,48.1,6.5,51.1"/>
								<path id="Path_1735" class="st6" d="M6.3,51.5c-0.8,3.4,0.8,1.9,1.1,1.8C7.6,53.1,9.7,52.4,6.3,51.5"/>
								<path id="Path_1736" class="st6" d="M5.8,51.5c-3.5,0.3-1.6,1.4-1.4,1.6C4.7,53.2,6,55,5.8,51.5"/>
								<path id="Path_1737" class="st6" d="M5.7,51c-1.4-3.2-1.8-1.1-1.9-0.8C3.6,50.4,2.4,52.2,5.7,51"/>
								<path id="Path_1738" class="st0" d="M55.9,50.1L55.9,50l0-0.1c-0.1-0.4-0.3-1-0.9-1c-0.2,0-0.3,0-0.4,0.1
									c0-0.2,0-0.3-0.1-0.4c-0.3-0.5-1-0.3-1.3-0.3l-0.1,0h-0.1c-0.4,0-1.1,0-1.3,0.5c-0.1,0.1-0.1,0.3,0,0.4
									c-0.1-0.1-0.3-0.1-0.4,0c-0.5,0.1-0.6,0.8-0.7,1.2l0,0.1l0,0.1c-0.1,0.4-0.3,1,0.1,1.3c0.1,0.1,0.3,0.1,0.4,0.2
									c-0.1,0.1-0.2,0.3-0.2,0.4c0,0.5,0.6,0.8,0.9,1l0.1,0.1l0.1,0.1c0.3,0.2,0.9,0.6,1.3,0.3c0.1-0.1,0.2-0.2,0.3-0.4
									c0.1,0.1,0.2,0.2,0.3,0.3c0.5,0.2,1-0.3,1.2-0.6l0.1-0.1l0.1-0.1c0.3-0.2,0.9-0.6,0.7-1.1c0-0.1-0.1-0.3-0.3-0.4
									c0.2,0,0.3-0.1,0.4-0.2C56.4,51.1,56.1,50.5,55.9,50.1"/>
								<path id="Path_1739" class="st6" d="M53.2,50.7c-2.6-2.3-0.5-2.1-0.2-2.1C53.3,48.6,55.4,48,53.2,50.7"/>
								<path id="Path_1740" class="st6" d="M52.9,51.1c-3,1.8-2.1-0.2-2-0.5C50.9,50.3,50.9,48.1,52.9,51.1"/>
								<path id="Path_1741" class="st6" d="M53,51.5c0.8,3.4-0.8,1.9-1.1,1.8C51.7,53.1,49.6,52.4,53,51.5"/>
								<path id="Path_1742" class="st6" d="M53.5,51.5c3.5,0.3,1.6,1.4,1.4,1.6C54.7,53.2,53.4,55,53.5,51.5"/>
								<path id="Path_1743" class="st6" d="M53.6,51c1.4-3.2,1.8-1.1,1.9-0.8C55.7,50.4,57,52.2,53.6,51"/>
								<path id="Path_1744" class="st0" d="M54.3,51.1C54.3,51.1,54.3,51,54.3,51.1c0.3-0.3,0.6-0.5,0.6-0.5l0-0.1
									c0,0-0.4,0.1-0.7,0.1c-0.2-0.3-0.5-0.5-0.8-0.5c-0.1-0.3-0.2-0.6-0.2-0.6l-0.1,0c0,0,0,0.3-0.1,0.7
									c-0.3,0.1-0.6,0.3-0.7,0.6c-0.3,0-0.7,0-0.7,0l0,0.1l0.6,0.3c0,0,0,0.1,0,0.1c0,0.3,0.2,0.5,0.4,0.7
									c-0.1,0.3-0.2,0.7-0.2,0.7l0.1,0l0.5-0.6c0.1,0,0.3,0.1,0.4,0.1c0.1,0,0.3-0.1,0.4-0.1c0.3,0.2,0.6,0.5,0.6,0.5l0.1,0
									c0,0-0.2-0.4-0.4-0.7C54.3,51.6,54.3,51.4,54.3,51.1"/>
								<path id="Path_1745" class="st6" d="M53.2,50.6c-0.3,0-0.6,0.3-0.6,0.7c0,0.3,0.3,0.6,0.7,0.6c0.3,0,0.6-0.3,0.6-0.7
									C53.9,50.8,53.6,50.5,53.2,50.6"/>
								<path id="Path_1746" class="st6" d="M6.1,50.7c2.6-2.3,0.5-2.1,0.2-2.1C6,48.6,3.9,48,6.1,50.7"/>
								<path id="Path_1747" class="st0" d="M7.1,51.2l0.7-0.3l0-0.1c0,0-0.4,0-0.7,0c0-0.1-0.1-0.2-0.2-0.3
									c-0.1-0.2-0.3-0.3-0.5-0.3c0-0.3-0.1-0.7-0.1-0.7l-0.1,0c0,0-0.1,0.3-0.2,0.6c-0.3,0-0.6,0.2-0.8,0.5
									c-0.3-0.1-0.7-0.1-0.7-0.1l0,0.1c0,0,0.3,0.2,0.6,0.4c0,0,0,0.1,0,0.1c0,0.3,0.1,0.5,0.2,0.8c-0.2,0.3-0.4,0.7-0.4,0.7
									l0.1,0l0.6-0.5c0.1,0.1,0.3,0.1,0.4,0.1c0.1,0,0.3,0,0.4-0.1l0.5,0.6l0.1,0c0,0-0.1-0.4-0.2-0.7C7,51.8,7.1,51.6,7.1,51.2
									C7.1,51.3,7.1,51.2,7.1,51.2"/>
								<path id="Path_1748" class="st6" d="M6.5,50.8c-0.1-0.1-0.3-0.2-0.4-0.2c-0.3,0-0.6,0.2-0.7,0.6s0.2,0.6,0.6,0.7
									c0.3,0,0.6-0.2,0.7-0.6C6.7,51.1,6.6,50.9,6.5,50.8"/>
								<path id="Path_1749" class="st0" d="M6.5,36.1c-1.5-0.3-2.9,0.7-3.2,2.2s0.7,2.9,2.2,3.2c1.5,0.3,2.9-0.7,3.2-2.2
									C9,37.7,8,36.3,6.5,36.1"/>
								<path id="Path_1750" class="st6" d="M7.1,38.1c0,0-0.1,0-0.1-0.1c-0.2-0.1-0.7-0.4-0.7-0.4l-0.2-0.1
									c-0.2-0.1-0.4-0.2-0.5-0.3c-0.1,0-0.1-0.1-0.2-0.1c-0.3-0.1-0.5-0.2-0.8-0.2C4.4,37,4.2,37.2,4,37.4c1,0.4,1.9,0.9,2.7,1.5
									C6.8,38.7,7.1,38.2,7.1,38.1"/>
								<path id="Path_1751" class="st6" d="M6.5,39.6c0-0.1,0.2-0.4,0.2-0.5c-0.9-0.6-1.8-1.1-2.8-1.5c-0.1,0.2-0.2,0.4-0.2,0.6
									C4.5,38.9,5.4,39.4,6.5,39.6"/>
								<path id="Path_1752" class="st6" d="M6.3,37.4c0.5-0.3,1.1-0.3,1.6-0.1c-0.2-0.2-0.4-0.4-0.6-0.6c-0.5-0.1-1.1,0-1.5,0.3
									C5.9,37.1,6.1,37.2,6.3,37.4"/>
								<path id="Path_1753" class="st6" d="M4.2,39.9C4.3,39.9,4.4,40,4.4,40c0.2,0.1,0.3,0.2,0.5,0.2c0.1,0,0.1,0.1,0.2,0.1
									c0.3,0.1,0.9,0.2,0.9,0.3l0.3-0.8c-1-0.2-2-0.6-2.8-1.3c0,0.3,0,0.5,0,0.8C3.8,39.5,4,39.7,4.2,39.9"/>
								<path id="Path_1754" class="st6" d="M6.1,40.8l-0.2-0.1c-0.2-0.1-0.4-0.1-0.6-0.2c0.1,0.2,0.3,0.4,0.5,0.6
									c0.2,0,0.5,0,0.7,0C6.3,41,6.2,40.9,6.1,40.8"/>
								<path id="Path_1755" class="st6" d="M8.3,38.1c-0.1-0.2-0.1-0.3-0.2-0.5c-0.5-0.3-1.1-0.3-1.6-0.1L7.3,38c0.1,0,0.3,0,0.4,0
									c0.1,0,0.1,0,0.2,0C8.1,38,8.2,38,8.3,38.1"/>
								<path id="Path_1756" class="st6" d="M7.9,38.2c0,1-0.4,2-1.1,2.8c0.8-0.3,1.4-1,1.6-1.8c0.1-0.3,0-0.6,0-0.9
									C8.2,38.2,8.1,38.2,7.9,38.2"/>
								<path id="Path_1757" class="st6" d="M5.6,36.9c0.3-0.3,0.7-0.4,1.2-0.4c-0.1,0-0.2-0.1-0.3-0.1c-0.5-0.1-1.1,0-1.6,0.3
									C5.1,36.7,5.4,36.8,5.6,36.9"/>
								<path id="Path_1758" class="st6" d="M7.3,38.2C7.1,38.6,7,38.8,6.9,39c0,0.1-0.1,0.1-0.1,0.2c0,0.1-0.2,0.4-0.2,0.4
									l-0.1,0.2l-0.3,0.8c0.1,0.1,0.2,0.2,0.3,0.3c0.7-0.8,1.1-1.7,1.1-2.8C7.6,38.2,7.4,38.2,7.3,38.2"/>
								<path id="Path_1759" class="st6" d="M5,40.5c-0.2-0.1-0.3-0.1-0.5-0.2c0.1,0.2,0.1,0.3,0.2,0.5C4.9,40.9,5.1,41,5.3,41
									C5.2,40.9,5.1,40.7,5,40.5"/>
								<path id="Path_1760" class="st6" d="M4.3,40.2C4.1,40.1,4,40,3.9,39.9c0.1,0.2,0.3,0.4,0.4,0.5C4.3,40.4,4.3,40.3,4.3,40.2"
									/>
								<path id="Path_1761" class="st0" d="M50.3,39.2c0.3,1.5,1.7,2.5,3.2,2.2c1.5-0.3,2.5-1.7,2.2-3.2c-0.3-1.5-1.7-2.5-3.2-2.2
									c0,0,0,0,0,0C51.1,36.3,50.1,37.7,50.3,39.2"/>
								<path id="Path_1762" class="st6" d="M51.9,38.1c0,0,0.1,0,0.1-0.1c0.2-0.1,0.7-0.4,0.7-0.4l0.2-0.1c0.2-0.1,0.4-0.2,0.5-0.3
									c0.1,0,0.1-0.1,0.2-0.1c0.2-0.1,0.5-0.2,0.8-0.2c0.2,0.2,0.4,0.4,0.6,0.6c-1,0.4-1.9,0.9-2.7,1.5
									C52.2,38.7,51.9,38.2,51.9,38.1"/>
								<path id="Path_1763" class="st6" d="M52.6,39.6c0-0.1-0.2-0.4-0.2-0.5c0.9-0.6,1.8-1.1,2.7-1.5c0.1,0.2,0.2,0.4,0.2,0.6
									C54.6,38.9,53.6,39.4,52.6,39.6"/>
								<path id="Path_1764" class="st6" d="M52.7,37.4c-0.5-0.3-1.1-0.3-1.6-0.1c0.2-0.2,0.4-0.4,0.6-0.6c0.5-0.1,1.1,0,1.5,0.3
									C53.1,37.1,52.9,37.2,52.7,37.4"/>
								<path id="Path_1765" class="st6" d="M54.8,39.9c-0.1,0.1-0.1,0.1-0.2,0.1c-0.2,0.1-0.3,0.2-0.5,0.2c-0.1,0-0.1,0.1-0.2,0.1
									c-0.3,0.1-0.9,0.2-0.9,0.3c0,0-0.2-0.6-0.3-0.8c1-0.2,2-0.6,2.8-1.3c0,0.3,0,0.5,0,0.8C55.2,39.5,55.1,39.7,54.8,39.9"/>
								<path id="Path_1766" class="st6" d="M52.9,40.8l0.2-0.1c0.2-0.1,0.4-0.1,0.7-0.2c-0.1,0.2-0.3,0.4-0.5,0.6
									c-0.2,0-0.5,0-0.7,0C52.7,41,52.8,40.9,52.9,40.8"/>
								<path id="Path_1767" class="st6" d="M50.7,38.1c0.1-0.2,0.1-0.3,0.2-0.5c0.5-0.3,1.1-0.3,1.6-0.1L51.8,38
									c-0.1,0-0.3,0-0.4,0c-0.1,0-0.1,0-0.2,0C51,38,50.9,38,50.7,38.1"/>
								<path id="Path_1768" class="st6" d="M51.1,38.2c0,1,0.4,2,1.1,2.8c-0.8-0.3-1.4-1-1.6-1.8c-0.1-0.3,0-0.6,0-0.9
									C50.8,38.2,51,38.2,51.1,38.2"/>
								<path id="Path_1769" class="st6" d="M53.5,36.9c-0.3-0.3-0.7-0.4-1.2-0.4c0.1,0,0.2-0.1,0.3-0.1c0.5-0.1,1.1,0,1.6,0.3
									C53.9,36.7,53.7,36.8,53.5,36.9"/>
								<path id="Path_1770" class="st6" d="M51.7,38.2c0.2,0.4,0.3,0.6,0.4,0.8l0.1,0.2c0,0.1,0.2,0.4,0.2,0.4l0.1,0.2l0.3,0.8
									c-0.1,0.1-0.2,0.2-0.3,0.3c-0.7-0.8-1.1-1.7-1.1-2.8C51.5,38.2,51.6,38.2,51.7,38.2"/>
								<path id="Path_1771" class="st6" d="M54,40.5c0.2-0.1,0.3-0.1,0.5-0.2c-0.1,0.2-0.1,0.3-0.2,0.5c-0.2,0.1-0.4,0.2-0.6,0.3
									C53.9,40.9,54,40.7,54,40.5"/>
								<path id="Path_1772" class="st6" d="M54.8,40.2c0.1-0.1,0.2-0.1,0.3-0.2c-0.1,0.2-0.2,0.4-0.4,0.5
									C54.7,40.4,54.8,40.3,54.8,40.2"/>
							</g>
						</g>
					</g>
				</g>
			</g>
		</g>
	</g>
</g>
</svg>
